# xmcd CD database file
#
# Track frame offsets:
#	187
#	24472
#	48230
#	72472
#
# Disc length: 1280 seconds
#
# Revision: 0
# Processed by: cddbd v1.5.1PL0 Copyright (c) Steve Scherf et al.
# Submitted via: CDex 1.51
#
DISCID=2f04fe04
DTITLE=THE 虎舞竜 - 届くことのない手紙 ロード〜第5章
DYEAR=1997
DGENRE=JPop
TTITLE0=届くことのない手紙 ロード〜第5章
TTITLE1=この心に太陽がある限り 〜平和の祈り〜(Single Version)
TTITLE2=届くことのない手紙 ロード〜第5章(カラオケ)
TTITLE3=この心に太陽がある限り 〜平和の祈り〜(カラオケ)
EXTD=YEAR: 1997
EXTT0=
EXTT1=
EXTT2=
EXTT3=
PLAYORDER=
